<mxfile host="65bd71144e">
    <diagram id="8IIJQSGpGR4sBqItaZJn" name="Page-1">
        <mxGraphModel dx="662" dy="289" grid="1" gridSize="10" guides="1" tooltips="1" connect="1" arrows="1" fold="1" page="1" pageScale="1" pageWidth="850" pageHeight="1100" math="0" shadow="0">
            <root>
                <mxCell id="0"/>
                <mxCell id="1" parent="0"/>
                <mxCell id="2" value="" style="shape=image;verticalLabelPosition=bottom;labelBackgroundColor=default;verticalAlign=top;aspect=fixed;imageAspect=0;image=https://cdn.discordapp.com/attachments/958127640215171102/1174426610255003748/1066.png;" vertex="1" parent="1">
                    <mxGeometry x="110" width="368" height="520" as="geometry"/>
                </mxCell>
            </root>
        </mxGraphModel>
    </diagram>
</mxfile>